<svg id="Layer_1" xmlns="http://www.w3.org/2000/svg" preserveAspectRatio="none slice" viewBox="0 0 100 100" width="100" height="100"><style>.st0{fill:#CE0058;} .st1{fill:#005EB8;} .st2{fill:#FFFFFF;}</style><title>Gift</title><path class="st0" d="M83.7 17.1c.1-2.6-.6-5.4-1.8-7.9C79 3.4 73.6 0 67.5 0 59 0 53.7 4.4 49.9 9.4 46 4.4 40.7 0 32.5 0c-6 0-11.6 3.5-14.5 9.1-1.3 2.5-1.9 5.3-1.8 8H0v29.3h5V100h90V46.3h5V17.1H83.7zM67.5 9.8c3.1 0 4.7 2.3 5.4 3.7.7 1.5.9 2.8.8 3.6H56.6c2.8-4.2 5.8-7.3 10.9-7.3zm-40.6 3.7c1.2-2.3 3.3-3.8 5.5-3.8 4.7 0 7.8 3.1 10.7 7.3H26.2c-.2-.9 0-2.2.7-3.5zM90 95.1H10V46.3h80v48.8zm5-53.6H5V22h90v19.5z"/><ellipse class="st1" cx="50" cy="59.8" rx="30" ry="29.3"/><g id="Symbols_1_"><g id="Mobile-Logo"><path class="st2" d="M56.8 69.4c-1.6.6-5.5 1.9-8.3 1.9-3.1 0-5.4-1-5.4-4.5 0-2.9 1.6-4.6 5.8-4.8l7.9-.3v7.7zm-4.5-26.9c-6.7 0-11.9 1.6-14 2.6l1.6 5.6s5.1-1.9 10.2-1.9c4.4 0 6.6 1.2 6.6 5.5v2.5h-6.6c-11.1 0-14.4 5.1-14.4 10.6 0 7.4 5.8 9.7 11.1 9.7 6.1 0 9.8-2.6 10.2-2.6.3 0 1.6 1.3 7.3 1.3V52.3c0-7.1-4.4-9.8-12-9.8z" id="Fill-4"/></g></g></svg>