<?xml version="1.0" encoding="UTF-8"?>
<svg width="33px" height="36px" viewBox="0 0 33 36" version="1.1" xmlns="http://www.w3.org/2000/svg" xmlns:xlink="http://www.w3.org/1999/xlink">
    <!-- Generator: Sketch 52.2 (67145) - http://www.bohemiancoding.com/sketch -->
    <title>icons/nav/on/account</title>
    <desc>Created with Sketch.</desc>
    <g id="Homepage" stroke="none" stroke-width="1" fill="none" fill-rule="evenodd">
        <g id="homepage-v.2.1/desktop" transform="translate(-39.000000, -804.000000)">
            <g id="menu-left" transform="translate(17.000000, 135.000000)">
                <g id="My-account" transform="translate(0.000000, 660.000000)">
                    <g id="icons/nav/on/account" transform="translate(11.000000, 0.000000)">
                        <rect id="Rectangle" x="0" y="0" width="54" height="54"></rect>
                        <path d="M40.1294643,45 L14.0133929,45 C12.3500596,44.9979125 11.0022134,43.7266806 11,42.1578947 L11,36.4736842 C11.0055357,31.7668944 15.0497206,27.9525895 20.0401786,27.9473684 L34.1026786,27.9473684 C39.0931366,27.9525895 43.1373214,31.7668944 43.1428571,36.4736842 L43.1428571,42.1578947 C43.1406438,43.7266806 41.7927975,44.9979125 40.1294643,45 Z M20.0401786,29.8421053 C16.1587622,29.8462819 13.0133569,32.8128957 13.0089286,36.4736842 L13.0089286,42.1578947 C13.0089286,42.6811119 13.4586426,43.1052632 14.0133929,43.1052632 L40.1294643,43.1052632 C40.6842146,43.1052632 41.1339286,42.6811119 41.1339286,42.1578947 L41.1339286,36.4736842 C41.1295003,32.8128957 37.984095,29.8462819 34.1026786,29.8421053 L20.0401786,29.8421053 Z M27.0714286,24.1578947 C22.6334261,24.1578947 19.0357143,20.7646844 19.0357143,16.5789474 C19.0357143,12.3932103 22.6334261,9 27.0714286,9 C31.509431,9 35.1071429,12.3932103 35.1071429,16.5789474 C35.1016086,20.7625204 31.5071366,24.1526751 27.0714286,24.1578947 Z M27.0714286,10.8947368 C23.7429267,10.8947368 21.0446429,13.4396446 21.0446429,16.5789474 C21.0446429,19.7182502 23.7429267,22.2631579 27.0714286,22.2631579 C30.3999304,22.2631579 33.0982143,19.7182502 33.0982143,16.5789474 C33.0948921,13.4409434 30.3985534,10.8978701 27.0714286,10.8947368 Z" id="icons/account/on/desktop" fill="#005EB8" fill-rule="nonzero"></path>
                    </g>
                </g>
            </g>
        </g>
    </g>
</svg>