<?xml version="1.0" encoding="UTF-8"?>
<svg width="36px" height="36px" viewBox="0 0 36 36" version="1.1" xmlns="http://www.w3.org/2000/svg" xmlns:xlink="http://www.w3.org/1999/xlink">
    <!-- Generator: Sketch 52.2 (67145) - http://www.bohemiancoding.com/sketch -->
    <title>icons/nav/on/book</title>
    <desc>Created with Sketch.</desc>
    <g id="Homepage" stroke="none" stroke-width="1" fill="none" fill-rule="evenodd">
        <g id="homepage-v.2.1/desktop" transform="translate(-37.000000, -346.000000)">
            <g id="menu-left" transform="translate(17.000000, 135.000000)">
                <g id="Book" transform="translate(11.000000, 202.000000)">
                    <g id="icons/nav/on/book">
                        <rect id="Rectangle" x="0" y="0" width="54" height="54"></rect>
                        <g id="Group-29" transform="translate(9.000000, 9.000000)" fill="#005EB8" fill-rule="nonzero">
                            <g id="Group-28">
                                <path d="M6.32651171,35.44428 L0.560247884,29.675783 C-0.0678954763,29.0458497 -0.180832079,28.0667867 0.287392992,27.3103663 C0.755618063,26.553946 1.68225255,26.2184753 2.52614239,26.499869 L5.11132966,27.238035 C5.92039921,25.8797544 6.91809105,24.6431541 8.07457358,23.5652092 L9.88204435,21.7594032 L0.373019836,15.2527403 L0.688067032,14.5649857 C0.985753051,13.8550873 1.55452794,13.2934312 2.26808756,13.0047407 C2.98164719,12.7160502 3.78092708,12.7242215 4.48843635,13.02744 L15.6465079,15.9945071 L19.9977597,11.6429287 C21.2147943,10.5200122 23.1011267,10.5579713 24.2720078,11.7289403 C25.442889,12.8999093 25.4808452,14.7863832 24.3580129,16.0035091 L20.0085614,20.3550875 L22.9772061,31.5175971 C23.279226,32.2252349 23.2865869,33.0241101 22.9976576,33.7371938 C22.7087283,34.4502774 22.147369,35.0186823 21.4379755,35.3164512 L20.7502725,35.6315221 L14.2422975,26.121784 L12.436627,27.92759 C11.3592978,29.0840072 10.1234065,30.0817658 8.76587714,30.8910563 L9.51478933,33.5160464 C9.77386008,34.3576596 9.42699893,35.2676097 8.67346182,35.723172 C7.91992471,36.1787343 6.95307011,36.0630108 6.32831198,35.4424796 L6.32651171,35.44428 Z" id="Path"></path>
                                <path d="M12.6886648,21.4983445 L9.34736425,24.8416962 C8.13202817,25.8681582 7.15518329,27.147368 6.48493544,28.5901389 L6.22389633,29.430928 L1.99326256,28.2228564 L1.80783478,28.2768685 L7.59930238,34.1731942 L7.59390157,34.1551901 L7.78292989,34.0129582 L6.57674919,29.7856077 L7.41747514,29.524549 C8.85707291,28.8492737 10.1342514,27.8716676 11.1620361,26.6583046 L14.5033366,23.3167533 L21.2633493,33.1973748 C21.3950477,32.801335 21.3855054,32.3718996 21.2363453,31.9821016 L18.0012607,19.814966 L23.0852223,14.7306229 C23.5083269,14.2182343 23.4726304,13.4681505 23.0027793,12.9982641 C22.5329281,12.5283777 21.7829005,12.4926785 21.2705504,12.9158149 L16.1865888,18.000158 L15.6861138,17.8669281 C15.6861138,17.8669281 8.18439003,15.8774808 4.02396677,14.7648306 C3.63419324,14.6152011 3.20442678,14.6062867 2.80878473,14.7396249 L12.6886648,21.4983445 Z" id="Path"></path>
                                <path d="M26.354512,34.101178 C33.2285458,30.4701278 37.0155907,22.854117 35.7624182,15.1812245 C34.5092457,7.50833196 28.4959001,1.49320682 20.8238603,0.238245671 C13.1518204,-1.01671548 5.53554488,2.76893155 1.90324907,9.642679 C1.66959763,10.0851586 1.83885935,10.6332853 2.28130572,10.8669542 C2.72375208,11.1006232 3.27183764,10.9313488 3.5054891,10.4888692 C6.77333115,4.29997505 13.6291589,0.890616668 20.5357122,2.01985054 C27.4422654,3.14908442 32.8554517,8.56444867 33.9823408,15.4718893 C35.1092298,22.3793299 31.6978841,29.2345562 25.5083853,32.5006181 C25.2228158,32.6517755 25.0395742,32.9438115 25.0276857,33.2667191 C25.0157973,33.5896268 25.1770681,33.8943486 25.4507491,34.0660989 C25.7244301,34.2378492 26.0689426,34.2505349 26.354512,34.0993776 L26.354512,34.101178 Z" id="Path"></path>
                            </g>
                        </g>
                    </g>
                </g>
            </g>
        </g>
    </g>
</svg>