<?xml version="1.0" encoding="UTF-8"?>
<svg width="48px" height="38px" viewBox="0 0 48 38" version="1.1" xmlns="http://www.w3.org/2000/svg" xmlns:xlink="http://www.w3.org/1999/xlink">
    <!-- Generator: Sketch 52.2 (67145) - http://www.bohemiancoding.com/sketch -->
    <title>icons/dashboard/on/desktop</title>
    <desc>Created with Sketch.</desc>
    <g id="Homepage" stroke="none" stroke-width="1" fill="none" fill-rule="evenodd">
        <g id="homepage-v.2.1/desktop" transform="translate(-28.000000, -244.000000)" fill="#005EB8" fill-rule="nonzero" stroke="#FFFFFF" stroke-width="0.5">
            <g id="menu-left" transform="translate(17.000000, 144.000000)">
                <g id="Dashboard" transform="translate(2.000000, 101.000000)">
                    <path d="M36.6142857,29.6470588 L29.6714286,29.6470588 C29.0323562,29.6470588 28.5142857,29.1730074 28.5142857,28.5882353 L28.5142857,1.05882353 C28.5142857,0.474051441 29.0323562,0 29.6714286,0 L36.6142857,0 C37.2533581,0 37.7714286,0.474051441 37.7714286,1.05882353 L37.7714286,28.5882353 C37.7714286,29.1730074 37.2533581,29.6470588 36.6142857,29.6470588 Z M30.8285714,27.5294118 L35.4571429,27.5294118 L35.4571429,2.11764706 L30.8285714,2.11764706 L30.8285714,27.5294118 Z M50.5,29.6470588 L43.5571429,29.6470588 C42.9180705,29.6470588 42.4,29.1730074 42.4,28.5882353 L42.4,9.52941176 C42.4,8.94463968 42.9180705,8.47058824 43.5571429,8.47058824 L50.5,8.47058824 C51.1390724,8.47058824 51.6571429,8.94463968 51.6571429,9.52941176 L51.6571429,28.5882353 C51.6571429,29.1730074 51.1390724,29.6470588 50.5,29.6470588 Z M44.7142857,27.5294118 L49.3428571,27.5294118 L49.3428571,10.5882353 L44.7142857,10.5882353 L44.7142857,27.5294118 Z M22.7285714,29.6470588 L15.7857143,29.6470588 C15.1466419,29.6470588 14.6285714,29.1730074 14.6285714,28.5882353 L14.6285714,15.8823529 C14.6285714,15.2975809 15.1466419,14.8235294 15.7857143,14.8235294 L22.7285714,14.8235294 C23.3676438,14.8235294 23.8857143,15.2975809 23.8857143,15.8823529 L23.8857143,28.5882353 C23.8857143,29.1730074 23.3676438,29.6470588 22.7285714,29.6470588 Z M16.9428571,27.5294118 L21.5714286,27.5294118 L21.5714286,16.9411765 L16.9428571,16.9411765 L16.9428571,27.5294118 Z M56.2857143,34.9411765 C56.2857143,34.3564044 55.7676438,33.8823529 55.1285714,33.8823529 L11.1571429,33.8823529 C10.5180705,33.8823529 10,34.3564044 10,34.9411765 C10,35.5259486 10.5180705,36 11.1571429,36 L55.1285714,36 C55.7676438,36 56.2857143,35.5259486 56.2857143,34.9411765 Z" id="icons/dashboard/on/desktop"></path>
                </g>
            </g>
        </g>
    </g>
</svg>