<?xml version="1.0" encoding="UTF-8"?>
<svg width="36px" height="36px" viewBox="0 0 36 36" version="1.1" xmlns="http://www.w3.org/2000/svg" xmlns:xlink="http://www.w3.org/1999/xlink">
    <!-- Generator: Sketch 52.2 (67145) - http://www.bohemiancoding.com/sketch -->
    <title>icons/home/on/desktop</title>
    <desc>Created with Sketch.</desc>
    <g id="Homepage" stroke="none" stroke-width="1" fill="none" fill-rule="evenodd">
        <g id="homepage-v.2.1/desktop" transform="translate(-36.000000, -104.000000)" fill="#005EB8" fill-rule="nonzero" stroke="#FFFFFF" stroke-width="0.4">
            <g id="menu-left" transform="translate(17.000000, 104.000000)">
                <g id="Home" transform="translate(18.000000, 0.000000)">
                    <path d="M35.8,4.7 L24.8,4.7 L24.8,1.125 C24.8,0.61712486 24.3550668,0.2 23.8,0.2 L2.2,0.2 C1.64493318,0.2 1.2,0.61712486 1.2,1.125 L1.2,34.875 C1.2,35.3828751 1.64493318,35.8 2.2,35.8 L35.8,35.8 C36.3550668,35.8 36.8,35.3828751 36.8,34.875 L36.8,5.625 C36.8,5.11712486 36.3550668,4.7 35.8,4.7 Z M3.05,2.58571429 L22.575,2.58571429 L22.575,34.0571429 L17.39375,34.0571429 L17.39375,23.869898 C17.39375,23.3709456 16.9513177,22.9602041 16.3984375,22.9602041 L9.2265625,22.9602041 C8.67368234,22.9602041 8.23125,23.3709456 8.23125,23.869898 L8.23125,34.0571429 L3.05,34.0571429 L3.05,2.58571429 Z M10.925,32.9857143 L10.925,24.0142857 L15.825,24.0142857 L15.825,32.9857143 L10.925,32.9857143 Z M34.95,34.0571429 L24.425,34.0571429 L24.425,6.87142857 L34.95,6.87142857 L34.95,34.0571429 Z M7.95,8.14285714 C7.95,8.61606414 8.42039924,9.01428571 9.015625,9.01428571 L16.609375,9.01428571 C17.2046008,9.01428571 17.675,8.61606414 17.675,8.14285714 C17.675,7.66965015 17.2046008,7.27142857 16.609375,7.27142857 L9.015625,7.27142857 C8.42039924,7.27142857 7.95,7.66965015 7.95,8.14285714 Z M7.95,12.4285714 C7.95,12.9017784 8.42039924,13.3 9.015625,13.3 L16.609375,13.3 C17.2046008,13.3 17.675,12.9017784 17.675,12.4285714 C17.675,11.9553644 17.2046008,11.5571429 16.609375,11.5571429 L9.015625,11.5571429 C8.42039924,11.5571429 7.95,11.9553644 7.95,12.4285714 Z M7.95,16.7142857 C7.95,17.1874927 8.42039924,17.5857143 9.015625,17.5857143 L16.609375,17.5857143 C17.2046008,17.5857143 17.675,17.1874927 17.675,16.7142857 C17.675,16.2410787 17.2046008,15.8428571 16.609375,15.8428571 L9.015625,15.8428571 C8.42039924,15.8428571 7.95,16.2410787 7.95,16.7142857 Z M27.075,10.2857143 C27.075,10.7647495 27.487013,11.1571429 28,11.1571429 L30.25,11.1571429 C30.762987,11.1571429 31.175,10.7647495 31.175,10.2857143 C31.175,9.80667904 30.762987,9.41428571 30.25,9.41428571 L28,9.41428571 C27.487013,9.41428571 27.075,9.80667904 27.075,10.2857143 Z M27.075,14.5714286 C27.075,15.0504638 27.487013,15.4428571 28,15.4428571 L30.25,15.4428571 C30.762987,15.4428571 31.175,15.0504638 31.175,14.5714286 C31.175,14.0923933 30.762987,13.7 30.25,13.7 L28,13.7 C27.487013,13.7 27.075,14.0923933 27.075,14.5714286 Z M27.075,18.8571429 C27.075,19.3361781 27.487013,19.7285714 28,19.7285714 L30.25,19.7285714 C30.762987,19.7285714 31.175,19.3361781 31.175,18.8571429 C31.175,18.3781076 30.762987,17.9857143 30.25,17.9857143 L28,17.9857143 C27.487013,17.9857143 27.075,18.3781076 27.075,18.8571429 Z" id="icons/home/on/desktop"></path>
                </g>
            </g>
        </g>
    </g>
</svg>