<?xml version="1.0" encoding="UTF-8"?>
<svg width="20px" height="20px" viewBox="0 0 20 20" version="1.1" xmlns="http://www.w3.org/2000/svg" xmlns:xlink="http://www.w3.org/1999/xlink">
    <!-- Generator: sketchtool 52.2 (67145) - http://www.bohemiancoding.com/sketch -->
    <title>B9CD69E3-27CF-49C1-AD08-3627A3705EC8</title>
    <desc>Created with sketchtool.</desc>
    <g id="Homepage-v.2" stroke="none" stroke-width="1" fill="none" fill-rule="evenodd">
        <g id="homepage-v.2.1/desktop" transform="translate(-1196.000000, -1415.000000)" fill="#BBBBBB" fill-rule="nonzero">
            <g id="footer/main/desktop" transform="translate(0.000000, 998.000000)">
                <g id="Social" transform="translate(1093.000000, 417.000000)">
                    <g id="icons/LinkedIn" transform="translate(103.000000, 0.000000)">
                        <path d="M20,12.296638 L20,20 L15.9059435,20 L15.9059435,12.8125628 C15.9059435,11.0070199 15.3137823,9.77480755 13.8318696,9.77480755 C12.7006171,9.77480755 12.027408,10.6052284 11.7312386,11.4085208 C11.6232338,11.6956947 11.5954332,12.0954031 11.5954332,12.4973884 L11.5954332,20 L7.5,20 C7.5,20 7.55515705,7.82684042 7.5,6.5656103 L11.5950336,6.5656103 L11.5950336,8.46988127 C11.5867289,8.4841237 11.5759373,8.49948033 11.5681212,8.51328677 L11.5950336,8.51328677 L11.5950336,8.46988127 C12.1390988,7.55579826 13.1107422,6.25 15.2855821,6.25 C17.9800617,6.24995156 20,8.17011204 20,12.296638 Z M2.51523126,0 C0.994611217,0 0,1.07950336 0,2.49908707 C0,3.88773541 0.965835695,5 2.45623421,5 L2.48592554,5 C4.03599591,5 5,3.88794408 5,2.49908707 C4.97079068,1.07950336 4.03599591,0 2.51523126,0 Z M0,20 L3.75,20 L3.75,6.25 L0,6.25 L0,20 Z" id="LinkedIn"></path>
                    </g>
                </g>
            </g>
        </g>
    </g>
</svg>