<?xml version="1.0" encoding="UTF-8"?>
<svg width="38px" height="29px" viewBox="0 0 38 29" version="1.1" xmlns="http://www.w3.org/2000/svg" xmlns:xlink="http://www.w3.org/1999/xlink">
    <!-- Generator: Sketch 52.2 (67145) - http://www.bohemiancoding.com/sketch -->
    <title>icons/news/on/desktop</title>
    <desc>Created with Sketch.</desc>
    <g id="Homepage" stroke="none" stroke-width="1" fill="none" fill-rule="evenodd">
        <g id="homepage-v.2.1/desktop" transform="translate(-36.000000, -446.000000)" fill="#005EB8" fill-rule="nonzero" stroke="#FFFFFF" stroke-width="0.4">
            <g id="menu-left" transform="translate(17.000000, 144.000000)">
                <g id="News" transform="translate(20.000000, 303.000000)">
                    <path d="M33.3,0 L2.7,0 C1.20883118,0 0,1.29517626 0,2.89285714 L0,4.82142857 C0,5.35398887 0.402943725,5.78571429 0.9,5.78571429 C1.39705627,5.78571429 1.8,5.35398887 1.8,4.82142857 L1.8,2.89285714 C1.8,2.36029685 2.20294373,1.92857143 2.7,1.92857143 L33.3,1.92857143 C33.7970563,1.92857143 34.2,2.36029685 34.2,2.89285714 L34.2,7.71428571 L0.9,7.71428571 C0.402943725,7.71428571 7.99360578e-16,8.14601113 7.99360578e-16,8.67857143 L7.99360578e-16,24.435 C3.19744231e-15,25.8516104 1.07183031,27 2.394,27 L33.606,27 C34.9281697,27 36,25.8516104 36,24.435 L36,2.89285714 C36,1.29517626 34.7911688,0 33.3,0 Z M34.2,24.435 C34.2,24.7864898 33.9340571,25.0714286 33.606,25.0714286 L2.394,25.0714286 C2.23646141,25.0714286 2.08537518,25.0043765 1.97397857,24.885023 C1.86258196,24.7656694 1.8,24.6037914 1.8,24.435 L1.8,9.64285714 L34.2,9.64285714 L34.2,24.435 Z M31.5,23.1428571 L22.5,23.1428571 C22.0029437,23.1428571 21.6,22.7111317 21.6,22.1785714 L21.6,16.3928571 C21.6,15.8602968 22.0029437,15.4285714 22.5,15.4285714 L31.5,15.4285714 C31.9970563,15.4285714 32.4,15.8602968 32.4,16.3928571 L32.4,22.1785714 C32.4,22.7111317 31.9970563,23.1428571 31.5,23.1428571 Z M23.4,21.2142857 L30.6,21.2142857 L30.6,17.3571429 L23.4,17.3571429 L23.4,21.2142857 Z M15.3,23.1428571 L4.5,23.1428571 C4.00294373,23.1428571 3.6,22.7111317 3.6,22.1785714 C3.6,21.6460111 4.00294373,21.2142857 4.5,21.2142857 L15.3,21.2142857 C15.7970563,21.2142857 16.2,21.6460111 16.2,22.1785714 C16.2,22.7111317 15.7970563,23.1428571 15.3,23.1428571 Z M9.9,19.2857143 L4.5,19.2857143 C4.00294373,19.2857143 3.6,18.8539889 3.6,18.3214286 C3.6,17.7888683 4.00294373,17.3571429 4.5,17.3571429 L9.9,17.3571429 C10.3970563,17.3571429 10.8,17.7888683 10.8,18.3214286 C10.8,18.8539889 10.3970563,19.2857143 9.9,19.2857143 Z" id="icons/news/on/desktop"></path>
                </g>
            </g>
        </g>
    </g>
</svg>