<?xml version="1.0" encoding="UTF-8"?>
<svg width="42px" height="36px" viewBox="0 0 42 36" version="1.1" xmlns="http://www.w3.org/2000/svg" xmlns:xlink="http://www.w3.org/1999/xlink">
    <!-- Generator: Sketch 52.2 (67145) - http://www.bohemiancoding.com/sketch -->
    <title>icons/tasks/on/desktop</title>
    <desc>Created with Sketch.</desc>
    <g id="Homepage" stroke="none" stroke-width="1" fill="none" fill-rule="evenodd">
        <g id="homepage-v.2.1/desktop" transform="translate(-31.000000, -640.000000)" fill="#005EB8" fill-rule="nonzero" stroke="#FFFFFF" stroke-width="0.2">
            <g id="menu-left" transform="translate(17.000000, 144.000000)">
                <g id="Tasks" transform="translate(14.000000, 496.000000)">
                    <path d="M5.71428571,25.9 C6.29298932,25.9 6.75714286,25.4938657 6.75714286,25 C6.75714286,24.5061343 6.29298932,24.1 5.71428571,24.1 L3.42857143,24.1 C3.10164702,24.1 2.78747786,23.9861335 2.55459893,23.7823645 C2.31899669,23.5762125 2.18571429,23.2946618 2.18571429,23 L2.18571429,3 C2.18571429,2.38929615 2.74490989,1.9 3.42857143,1.9 L26.2857143,1.9 C26.9693758,1.9 27.5285714,2.38929615 27.5285714,3 L27.5285714,5 C27.5285714,5.49386565 27.992725,5.9 28.5714286,5.9 C29.1501322,5.9 29.6142857,5.49386565 29.6142857,5 L29.6142858,3.00015208 C29.6118562,1.40251382 28.1257175,0.102142456 26.2857143,0.1 L3.42868786,0.0999999322 C1.58856822,0.102142456 0.102429525,1.40251382 0.1,3 L0.0999998844,22.9998479 C0.102429525,24.5974862 1.58856822,25.8978575 3.42857143,25.9 L5.71428571,25.9 Z M41.0428573,32.9998479 L41.0428571,33 L41.0428573,11.0001521 C41.0404276,9.40251382 39.5542889,8.10214246 37.7142857,8.1 L12.571545,8.09999993 C10.7314254,8.10214246 9.24528667,9.40251382 9.24285714,11 L9.24285703,32.9998479 C9.24528667,34.5974862 10.7314254,35.8978575 12.5714286,35.9 L37.7141693,35.9000001 C39.5542889,35.8978575 41.0404276,34.5974862 41.0428573,32.9998479 Z M37.7142857,9.9 C38.3979473,9.9 38.9571429,10.3892962 38.9571429,11 L38.9571429,33 C38.9571429,33.6107038 38.3979473,34.1 37.7142857,34.1 L12.5714286,34.1 C11.887767,34.1 11.3285714,33.6107038 11.3285714,33 L11.3285714,11 C11.3285714,10.3892962 11.887767,9.9 12.5714286,9.9 L37.7142857,9.9 Z M22.9369623,29.9639154 C23.2519822,29.955402 23.5451371,29.8241877 23.7352027,29.6079505 L36.0455231,15.6140138 C36.2798884,15.361213 36.3385669,15.0203883 36.2007185,14.7205665 C36.0609695,14.4166107 35.7402725,14.2004844 35.3621244,14.1591431 C34.9826504,14.1176568 34.6082866,14.259136 34.3836519,14.5280525 L22.934509,27.5420525 L22.7878511,27.5458332 L17.7204874,22.3518995 C17.345552,21.9683118 16.6803328,21.9229023 16.2404871,22.2520632 C15.8087403,22.5751632 15.758738,23.1359848 16.1264282,23.5121603 L22.108081,29.6420974 C22.3060117,29.8445782 22.5974535,29.9620177 22.9118584,29.9622257 L22.9369623,29.9639154 Z" id="icons/tasks/on/desktop"></path>
                </g>
            </g>
        </g>
    </g>
</svg>