<?xml version="1.0" encoding="UTF-8"?>
<svg width="23px" height="16px" viewBox="0 0 23 16" version="1.1" xmlns="http://www.w3.org/2000/svg" xmlns:xlink="http://www.w3.org/1999/xlink">
    <!-- Generator: sketchtool 52.2 (67145) - http://www.bohemiancoding.com/sketch -->
    <title>0D90CC17-7C95-46B5-84C0-D28FDD28D20D</title>
    <desc>Created with sketchtool.</desc>
    <g id="Homepage-v.2" stroke="none" stroke-width="1" fill="none" fill-rule="evenodd">
        <g id="homepage-v.2.1/desktop" transform="translate(-1252.000000, -1417.000000)" fill="#BBBBBB" fill-rule="nonzero">
            <g id="footer/main/desktop" transform="translate(0.000000, 998.000000)">
                <g id="Social" transform="translate(1093.000000, 417.000000)">
                    <g id="icons/youtube" transform="translate(159.000000, 2.000000)">
                        <path d="M22.0225,1.54181818 C21.398625,0.418909091 20.7215625,0.212363636 19.343,0.133818182 C17.965875,0.0392727273 14.5029375,0 11.502875,0 C8.4970625,0 5.0326875,0.0392727273 3.657,0.132363636 C2.2813125,0.212363636 1.6028125,0.417454545 0.9731875,1.54181818 C0.330625,2.66327273 0,4.59490909 0,7.99563636 C0,7.99854545 0,8 0,8 C0,8.00290909 0,8.00436364 0,8.00436364 L0,8.00727273 C0,11.3934545 0.330625,13.3396364 0.9731875,14.4494545 C1.6028125,15.5723636 2.279875,15.776 3.6555625,15.8705455 C5.0326875,15.952 8.4970625,16 11.502875,16 C14.5029375,16 17.965875,15.952 19.3444375,15.872 C20.723,15.7774545 21.4000625,15.5738182 22.0239375,14.4509091 C22.67225,13.3410909 23,11.3949091 23,8.00872727 C23,8.00872727 23,8.00436364 23,8.00145455 C23,8.00145455 23,7.99854545 23,7.99709091 C23,4.59490909 22.67225,2.66327273 22.0225,1.54181818 Z M8.625,12.3636364 L8.625,3.63636364 L15.8125,8 L8.625,12.3636364 Z" id="youtube"></path>
                    </g>
                </g>
            </g>
        </g>
    </g>
</svg>